<svg width="45" height="43" viewBox="0 0 45 43" fill="none" xmlns="http://www.w3.org/2000/svg">
<g id="j4 1">
<path id="Vector" d="M7.85069 36.2983L9.26466 35.2959C11.1137 38.9298 13.289 40.308 16.4433 40.308C21.0115 40.308 23.1868 37.1753 23.1868 30.2838V0.0856628H24.9271V30.5341C24.9271 37.0498 22.643 42.1874 16.3339 42.1874C12.5271 42.1874 9.59036 40.0571 7.8501 36.2983H7.85069Z" fill="#0EE6B7"/>
<path id="Vector_2" d="M30.2036 29.5738V27.8747L38.9546 22.8834L43.7676 20.1225V19.9103L38.9546 17.1493L30.2036 12.158V10.459L44.9344 19.0611V20.9728L30.2036 29.5749V29.5738Z" fill="#0EE6B7"/>
<path id="Vector_3" d="M0.0656738 20.9717V19.06L14.7965 10.4579V12.1569L6.04548 17.1482L1.23255 19.9092V20.1214L6.04548 22.8824L14.7965 27.8736V29.5727L0.0656738 20.9717Z" fill="#0EE6B7"/>
</g>
</svg>
